<!--Generator: Adobe Illustrator 19.0.0, SVG Export Plug-In . SVG Version: 6.00 Build 0)-->
<svg xmlns="http://www.w3.org/2000/svg" viewBox="0 0 512 512">
    <path d="M504.441 304.322a7.557 7.557 0 0 0-7.559 7.559v10.02H15.118V42.658c0-1.39 1.13-2.52 2.52-2.52H128c4.176 0 7.559-3.383 7.559-7.559S132.176 25.02 128 25.02H17.638C7.913 25.02 0 32.933 0 42.658v328.207c0 9.725 7.913 17.638 17.638 17.638h152.529l-11.391 53.474h-15.884c-9.85 0-17.866 8.015-17.866 17.866v9.272c0 9.851 8.015 17.866 17.866 17.866h213.862c9.851 0 17.867-8.014 17.867-17.866v-9.272c0-9.85-8.015-17.866-17.867-17.866h-17.515l-11.391-53.474h166.515c9.725 0 17.638-7.913 17.638-17.638v-58.983a7.56 7.56 0 0 0-7.56-7.56zM333.12 457.094h23.633c1.49 0 2.748 1.258 2.748 2.747v9.272c0 1.49-1.259 2.747-2.748 2.747H142.89c-1.49 0-2.747-1.258-2.747-2.747v-9.272c0-1.49 1.258-2.747 2.747-2.747H333.12zm-158.889-15.119l11.392-53.474H312.39l11.392 53.474H174.231zm322.651-71.11c0 1.39-1.13 2.52-2.52 2.52H17.638c-1.39 0-2.52-1.13-2.52-2.52V337.02h481.764v33.845zM494.362 25.02h-329.47c-4.176 0-7.559 3.383-7.559 7.559s3.383 7.559 7.559 7.559h329.47c1.39 0 2.52 1.13 2.52 2.52v235.514a7.557 7.557 0 0 0 7.559 7.559 7.557 7.557 0 0 0 7.559-7.559V42.658c0-9.725-7.913-17.638-17.638-17.638z"/>
    <path d="M367.457 135.857h-66.594V76.474a7.557 7.557 0 0 0-7.559-7.559H144.996a7.557 7.557 0 0 0-7.559 7.559v148.307a7.558 7.558 0 0 0 7.559 7.559h66.595v59.383a7.557 7.557 0 0 0 7.559 7.559h148.307a7.557 7.557 0 0 0 7.559-7.559V143.416a7.558 7.558 0 0 0-7.559-7.559zm-155.866 7.559v73.806h-59.036V84.033h133.19v51.824H219.15a7.557 7.557 0 0 0-7.559 7.559zm74.153 7.559v66.247h-59.035v-66.247h59.035zm74.155 133.188h-133.19V232.34h66.594a7.558 7.558 0 0 0 7.56-7.559v-73.806h59.035v133.188zM450.849 80.134h-29.397a7.557 7.557 0 0 0-7.559 7.559v91.649a7.558 7.558 0 0 0 7.559 7.558h29.397a7.557 7.557 0 0 0 7.559-7.559V87.693a7.557 7.557 0 0 0-7.559-7.559zm-7.559 91.649h-14.279V95.252h14.279v76.531zM450.849 202.561h-29.397a7.557 7.557 0 0 0-7.559 7.559 7.558 7.558 0 0 0 7.559 7.559h29.397a7.557 7.557 0 0 0 7.559-7.559 7.557 7.557 0 0 0-7.559-7.559zM450.849 233.341h-29.397a7.557 7.557 0 0 0-7.559 7.559 7.558 7.558 0 0 0 7.559 7.559h29.397a7.557 7.557 0 0 0 7.559-7.559 7.558 7.558 0 0 0-7.559-7.559zM450.849 264.121h-29.397a7.557 7.557 0 0 0-7.559 7.559 7.558 7.558 0 0 0 7.559 7.559h29.397a7.557 7.557 0 0 0 7.559-7.559 7.557 7.557 0 0 0-7.559-7.559zM93.732 64.443H55.937a7.557 7.557 0 0 0-7.559 7.559v37.795a7.557 7.557 0 0 0 7.559 7.559h37.795a7.557 7.557 0 0 0 7.559-7.559V72.002a7.557 7.557 0 0 0-7.559-7.559zm-7.559 37.795H63.496V79.561h22.677v22.677zM93.732 123.404H55.937a7.557 7.557 0 0 0-7.559 7.559v37.795a7.557 7.557 0 0 0 7.559 7.559h37.795a7.557 7.557 0 0 0 7.559-7.559v-37.795a7.557 7.557 0 0 0-7.559-7.559zm-7.559 37.795H63.496v-22.677h22.677v22.677zM93.732 182.364H55.937a7.557 7.557 0 0 0-7.559 7.559v37.795a7.557 7.557 0 0 0 7.559 7.559h37.795a7.557 7.557 0 0 0 7.559-7.559v-37.795a7.558 7.558 0 0 0-7.559-7.559zm-7.559 37.795H63.496v-22.677h22.677v22.677zM93.732 241.325H55.937a7.557 7.557 0 0 0-7.559 7.559v37.795a7.557 7.557 0 0 0 7.559 7.559h37.795a7.557 7.557 0 0 0 7.559-7.559v-37.795a7.558 7.558 0 0 0-7.559-7.559zm-7.559 37.795H63.496v-22.677h22.677v22.677z"/>
</svg>
